<?xml version="1.0" encoding="utf-8"?>
<!-- Generator: Adobe Illustrator 26.2.1, SVG Export Plug-In . SVG Version: 6.00 Build 0)  -->
<svg version="1.1" id="Layer_1" xmlns="http://www.w3.org/2000/svg" xmlns:xlink="http://www.w3.org/1999/xlink" x="0px" y="0px"
	 viewBox="0 0 1000 150" style="enable-background:new 0 0 1000 150;" xml:space="preserve">
<style type="text/css">
	.st0{fill:#219EBC;}
	.st1{fill:#E23C28;}
</style>
<g>
	<path class="st0" d="M25.93,92.63L11.77,44.62c-0.19-0.84,3.66-6.38,11.72-6.38c3.66,0,8.72,2.06,10.22,10.03l4.97,26.26
		l6.38-23.82c1.03-4.69,5.25-6.85,10.22-6.85c4.88,0,9.1,2.53,10.13,6.85l6.28,23.73l4.97-26.45c1.31-7.31,5.91-9.75,10.22-9.75
		c7.5,0,11.25,5.44,10.97,6.38L84.17,92.63c-1.5,5.25-5.25,7.13-11.07,7.13c-5.63,0-9.47-1.69-11.07-7.22L55.01,67.5l-6.94,25.04
		c-1.5,5.44-5.53,7.22-11.25,7.22C31,99.76,27.53,98.16,25.93,92.63z"/>
	<path class="st0" d="M122.63,51.74c14.16,0,24.01,9.75,24.01,23.16v0.84c-0.09,2.72-0.84,4.31-3.66,4.31h-29.63
		c0.09,0.47,0.19,0.94,0.38,1.31c1.31,4.41,5.35,6.94,10.69,6.94c5.53,0,9.38-2.34,11.07-5.63c0.09-0.19,8.53,0.09,8.53,6.94
		c0,3.09-1.88,5.81-5.25,7.78c-3.47,1.97-8.44,3.09-15,3.09c-15.85,0-25.79-9-25.79-24.01C97.96,62.25,108.28,51.74,122.63,51.74z
		 M122.35,63.28c-4.78,0-8.35,3.56-8.82,8.44h17.07C130.32,66.37,127.32,63.28,122.35,63.28z"/>
	<path class="st0" d="M152.83,90.94V35.24c0-0.66,3.19-2.06,6.85-2.06c5.25,0,11.16,2.72,11.16,13.69v44.08
		c0,6.47-3.38,8.72-7.97,8.72h-1.88C156.2,99.66,152.83,97.6,152.83,90.94z"/>
	<path class="st0" d="M201.78,51.74c7.41,0,12.29,1.97,15.38,4.6c3.09,2.44,4.31,5.53,4.31,7.88c0,7.13-9.28,8.44-9.66,7.78
		c-1.41-3.66-4.03-6.19-9.1-6.19c-5.53,0-9.47,4.31-9.47,10.22c0,6.1,3.94,10.41,9.47,10.41c4.69,0,7.69-2.44,9.1-6.1
		c0.28-0.66,9.66,0.28,9.66,7.88c0,2.25-1.31,5.34-4.5,7.78c-3.09,2.63-8.06,4.5-15.19,4.5c-14.72,0-24.66-9.94-24.66-24.48
		C177.12,61.87,187.34,51.74,201.78,51.74z"/>
	<path class="st0" d="M250.65,51.74c15.19,0,25.13,9.75,25.13,24.38c0,14.72-10.03,24.38-25.41,24.38
		c-15.29,0-25.13-9.57-25.13-24.48C225.23,61.5,235.36,51.74,250.65,51.74z M250.55,65.43c-5.91,0-10.03,4.31-10.03,10.6
		c0,6.38,4.13,10.69,10.03,10.69c5.72,0,9.94-4.5,9.94-10.6C260.49,69.84,256.37,65.43,250.55,65.43z"/>
	<path class="st0" d="M359.25,69.47v21.48c0,6.47-3.28,8.72-7.97,8.72h-1.88c-4.78,0-8.16-2.06-8.16-8.72V72.75
		c0-4.22-1.88-6.38-5.53-6.38c-2.63,0-4.69,1.41-6.1,3.38v21.19c0,6.56-3.28,8.72-7.97,8.72h-1.78c-4.88,0-8.25-2.06-8.25-8.72
		v-18.1c0-4.31-1.88-6.47-5.44-6.47c-2.63,0-4.78,1.41-6.1,3.38v21.19c0,6.56-3.38,8.72-7.97,8.72h-1.88
		c-4.78,0-8.16-2.06-8.16-8.72V54.27c0-0.66,3.19-2.06,6.85-2.06c4.13,0,8.63,1.69,10.32,8.06c3.19-4.88,7.31-8.53,14.54-8.53
		c7.97,0,12.38,3.75,14.44,9.19c3.19-5.16,7.41-9.19,15.1-9.19C355.21,51.74,359.25,59.81,359.25,69.47z"/>
	<path class="st0" d="M389.64,51.74c14.16,0,24.01,9.75,24.01,23.16v0.84c-0.09,2.72-0.84,4.31-3.66,4.31h-29.63
		c0.09,0.47,0.19,0.94,0.38,1.31c1.31,4.41,5.35,6.94,10.69,6.94c5.53,0,9.38-2.34,11.07-5.63c0.09-0.19,8.53,0.09,8.53,6.94
		c0,3.09-1.88,5.81-5.25,7.78c-3.47,1.97-8.44,3.09-15,3.09c-15.85,0-25.79-9-25.79-24.01C364.97,62.25,375.29,51.74,389.64,51.74z
		 M389.36,63.28c-4.78,0-8.35,3.56-8.82,8.44h17.07C397.33,66.37,394.33,63.28,389.36,63.28z"/>
	<path class="st0" d="M438.31,83.91V66.28h-1.22c-4.6,0-7.03-2.16-7.03-6.1v-1.03c0-4.03,2.25-6.47,7.03-6.47h1.22v-4.5
		c0-5.72,2.91-8.63,8.06-8.63h1.59c4.88,0,7.97,1.97,7.97,8.63v4.5h5.35c4.78,0,7.03,2.06,7.03,6.1v1.03c0,4.22-2.44,6.47-7.22,6.47
		h-5.44v15.57c0,3.09,1.22,4.69,3.94,4.69c2.34,0,3.85-1.22,5.06-2.91c0.66,0,3.94,2.34,3.94,6.66c0,2.44-0.84,4.5-2.53,6.28
		c-2.34,2.44-6.38,3.94-11.44,3.94C443.66,100.51,438.31,94.98,438.31,83.91z"/>
	<path class="st0" d="M496.37,51.74c15.19,0,25.13,9.75,25.13,24.38c0,14.72-10.04,24.38-25.41,24.38
		c-15.29,0-25.13-9.57-25.13-24.48C470.95,61.5,481.08,51.74,496.37,51.74z M496.27,65.43c-5.91,0-10.03,4.31-10.03,10.6
		c0,6.38,4.13,10.69,10.03,10.69c5.72,0,9.94-4.5,9.94-10.6C506.21,69.84,502.09,65.43,496.27,65.43z"/>
	<path class="st1" d="M543.82,88.69V49.02c0-6.85,3.47-10.5,9.66-10.5h21.57c14.26,0,21.95,5.44,21.95,15.29
		c0,6.94-3.94,10.88-11.07,12.57c9.1,2.16,13.13,7.78,13.13,15.29c0,12.19-7.69,17.54-26.26,17.54h-19.32
		C547.29,99.2,543.82,95.54,543.82,88.69z M569.8,63.65c5.44,0,8.16-2.25,8.16-6.47c0-3.94-2.63-6-7.88-6h-7.78v12.47H569.8z
		 M570.93,86.54c6.47,0,9.19-2.06,9.19-6.94c0-4.6-2.81-6.47-9.38-6.47h-8.44v13.41H570.93z"/>
	<path class="st1" d="M613.88,111.86l7.6-16.04c-2.16-0.47-3.85-1.5-4.6-3.38L601.5,57.28c-0.38-0.94,4.78-5.16,10.13-5.25
		c3.66,0,7.41,1.88,9.29,8.25l6.94,20.35l6.47-20.35c1.88-6.28,5.63-8.25,9.28-8.25c5.06,0,10.22,4.22,9.75,5.25l-20.26,51.49
		c-2.35,6.1-5.72,8.07-9.57,8.07C618.29,116.83,613.41,112.79,613.88,111.86z"/>
	<path class="st1" d="M662.46,83.91V66.28h-1.22c-4.6,0-7.03-2.16-7.03-6.1v-1.03c0-4.03,2.25-6.47,7.03-6.47h1.22v-4.5
		c0-5.72,2.91-8.63,8.07-8.63h1.59c4.88,0,7.97,1.97,7.97,8.63v4.5h5.35c4.78,0,7.03,2.06,7.03,6.1v1.03c0,4.22-2.44,6.47-7.22,6.47
		h-5.44v15.57c0,3.09,1.22,4.69,3.94,4.69c2.34,0,3.84-1.22,5.06-2.91c0.66,0,3.94,2.34,3.94,6.66c0,2.44-0.84,4.5-2.53,6.28
		c-2.35,2.44-6.38,3.94-11.44,3.94C667.81,100.51,662.46,94.98,662.46,83.91z"/>
	<path class="st1" d="M719.77,51.74c14.16,0,24.01,9.75,24.01,23.16v0.84c-0.09,2.72-0.84,4.31-3.66,4.31h-29.63
		c0.09,0.47,0.19,0.94,0.38,1.31c1.31,4.41,5.35,6.94,10.69,6.94c5.53,0,9.38-2.34,11.06-5.63c0.09-0.19,8.54,0.09,8.54,6.94
		c0,3.09-1.88,5.81-5.25,7.78c-3.47,1.97-8.44,3.09-15.01,3.09c-15.85,0-25.79-9-25.79-24.01C695.1,62.25,705.42,51.74,719.77,51.74
		z M719.48,63.28c-4.78,0-8.35,3.56-8.81,8.44h17.07C727.46,66.37,724.46,63.28,719.48,63.28z"/>
	<path class="st1" d="M796.01,37.21c8.54,0,14.54,2.25,18.38,5.25c3.75,3,5.34,6.66,5.34,9.66c0,7.88-10.6,9.75-10.88,9.19
		c-2.25-4.41-6.47-6.85-11.82-6.85c-7.69,0-13.41,5.53-13.41,14.35s5.81,14.44,13.41,14.44c5.81,0,9.94-2.63,12-7.22
		c0.28-0.56,10.97,1.22,10.97,9.19c0,3-1.69,6.75-5.44,9.85c-3.94,3.09-9.94,5.44-18.66,5.44c-18.85,0-31.6-13.04-31.6-31.6
		C764.32,50.43,777.16,37.21,796.01,37.21z"/>
	<path class="st1" d="M825.84,90.94V35.24c0-0.66,3.19-2.06,6.85-2.06c5.25,0,11.16,2.72,11.16,13.69v44.08
		c0,6.47-3.38,8.72-7.97,8.72H834C829.22,99.66,825.84,97.6,825.84,90.94z"/>
	<path class="st1" d="M900.58,60.84V97.6c0,0.56-3.28,2.06-6.94,2.06c-3.66,0-7.6-1.31-9.66-6c-0.19-0.56-0.47-1.22-0.56-1.97
		c-3.28,5.06-7.78,8.72-15.29,8.72c-12,0-16.41-8.63-16.41-18.29V60.84c0-6.38,3.28-8.63,7.88-8.63h1.88c4.88,0,8.25,1.97,8.25,8.63
		v18.19c0,4.22,2.16,6.75,6,6.75c3,0,5.44-1.5,6.85-3.66V60.84c0-6.47,3.28-8.63,7.97-8.63h1.88
		C897.21,52.21,900.58,54.18,900.58,60.84z"/>
	<path class="st1" d="M926.1,94.98c-1.03,3.47-3.75,4.69-7.13,4.69h-1.88c-4.88,0-8.25-2.06-8.25-8.72V35.24
		c0-0.66,3.28-2.06,6.94-2.06c5.16,0,11.07,2.72,11.07,13.69v11.44c2.91-4.13,7.69-6.57,13.5-6.57c12.75,0,21.1,9.29,21.1,24.29
		c0,14.44-8.35,24.48-21.1,24.48c-6.56,0-11.54-3.47-13.69-8.35L926.1,94.98z M935.38,65.72c-4.03,0-6.94,2.06-8.53,5.35v7.5
		c0.09,4.97,3.56,7.97,8.44,7.97c5.44,0,9.1-4.13,9.1-10.41C944.38,69.75,940.82,65.72,935.38,65.72z"/>
	<path class="st0" d="M971.87,73.31l-4.78-24.48c-1.78-6.85,2.16-11.44,9-11.44h2.35c7.22,0,11.16,4.59,9.38,11.44l-4.88,24.48
		c-0.94,3.75-2.25,5.63-4.69,5.63h-1.88C974.12,78.94,972.9,77.06,971.87,73.31z M968.58,92.35v-1.59c0-5.16,2.53-7.6,7.69-7.6h2.06
		c5.44,0,7.88,2.44,7.88,7.6v1.59c0,5.16-2.53,7.6-7.88,7.6h-2.06C971.12,99.95,968.58,97.51,968.58,92.35z"/>
</g>
</svg>
