<?xml version="1.0" encoding="utf-8"?>
<!-- Generator: Adobe Illustrator 26.2.1, SVG Export Plug-In . SVG Version: 6.00 Build 0)  -->
<svg version="1.1" id="Layer_1" xmlns="http://www.w3.org/2000/svg" xmlns:xlink="http://www.w3.org/1999/xlink" x="0px" y="0px"
	 viewBox="0 0 462.05 250.92" style="enable-background:new 0 0 462.05 250.92;" xml:space="preserve">
<style type="text/css">
	.st0{fill:#219EBC;}
	.st1{fill:#E23C28;}
</style>
<g>
	<path class="st0" d="M450.79,212.42l0-40.34c0-14.85-12.04-26.89-26.89-26.89l-40.34,0c-14.85,0-26.89,12.04-26.89,26.89v5.03
		c0.79,5.09,3.63,23.35,3.81,24.57c0.12,0.85,0.13,1.39,0.47,1.43l0.13,0.01c0.34,0.05,0.47-0.46,0.81-1.25
		c0.33-0.79,3.98-9.35,6.82-16c0.6-1.41,2.72-0.88,2.57,0.65c-0.68,7.28-1.55,16.7-1.64,17.56c-0.09,0.86-0.21,1.38,0.1,1.52
		l0.12,0.05c0.32,0.14,0.58-0.32,1.09-0.99c0.52-0.67,6.17-7.98,10.54-13.64c0.93-1.21,2.84-0.17,2.33,1.27
		c-2.43,6.86-5.61,15.82-5.9,16.63c-0.3,0.81-0.54,1.27-0.27,1.49l0.1,0.08c0.27,0.22,0.63-0.15,1.29-0.66
		c0.66-0.51,7.98-6.08,13.59-10.35c1.21-0.92,2.78,0.56,1.93,1.82c-4.03,5.97-9.35,13.85-9.84,14.56c-0.48,0.7-0.83,1.08-0.62,1.37
		l0.08,0.11c0.21,0.28,0.64,0.03,1.4-0.28c0.77-0.31,9.3-3.72,15.78-6.31c1.41-0.56,2.52,1.27,1.38,2.26
		c-5.36,4.67-12.49,10.88-13.14,11.43c-0.63,0.55-1.06,0.82-0.93,1.15l0.05,0.13c0.13,0.33,0.62,0.2,1.43,0.11
		c0.83-0.09,9.99-1.05,16.9-1.77c1.5-0.16,2.08,1.89,0.72,2.55c-6.33,3.04-14.78,7.1-15.54,7.46c-0.75,0.35-1.23,0.49-1.18,0.86
		l0.02,0.14c0.04,0.36,0.55,0.37,1.35,0.5c1.03,0.18,15.09,2.64,21.38,3.74h10.1C438.75,239.31,450.79,227.27,450.79,212.42z"/>
	<g>
		<path class="st1" d="M62.59,93.88V27.72c0-11.42,5.79-17.52,16.11-17.52h35.98c23.78,0,36.6,9.07,36.6,25.5
			c0,11.57-6.57,18.14-18.46,20.96c15.17,3.6,21.9,12.98,21.9,25.5c0,20.33-12.83,29.25-43.8,29.25H78.71
			C68.38,111.4,62.59,105.3,62.59,93.88z M105.92,52.12c9.07,0,13.61-3.75,13.61-10.79c0-6.57-4.38-10.01-13.14-10.01H93.41v20.8
			H105.92z M107.8,90.28c10.79,0,15.33-3.44,15.33-11.58c0-7.66-4.69-10.79-15.64-10.79H93.41v22.37H107.8z"/>
		<path class="st1" d="M177.43,132.52l12.67-26.75c-3.6-0.78-6.41-2.5-7.66-5.63l-25.65-58.66c-0.63-1.56,7.98-8.6,16.89-8.76
			c6.1,0,12.36,3.13,15.49,13.76l11.57,33.94l10.79-33.94c3.13-10.48,9.38-13.76,15.48-13.76c8.45,0,17.05,7.04,16.27,8.76
			l-33.79,85.87c-3.91,10.17-9.54,13.45-15.95,13.45C184.78,140.81,176.65,134.08,177.43,132.52z"/>
		<path class="st1" d="M263.45,85.9V56.5h-2.03c-7.66,0-11.73-3.6-11.73-10.17v-1.72c0-6.73,3.75-10.79,11.73-10.79h2.03v-7.51
			c0-9.54,4.85-14.39,13.45-14.39h2.66c8.13,0,13.3,3.28,13.3,14.39v7.51h8.92c7.98,0,11.73,3.44,11.73,10.17v1.72
			c0,7.04-4.07,10.79-12.04,10.79h-9.07v25.97c0,5.16,2.03,7.82,6.57,7.82c3.91,0,6.41-2.03,8.45-4.85c1.09,0,6.57,3.91,6.57,11.11
			c0,4.07-1.41,7.51-4.22,10.48c-3.91,4.07-10.64,6.57-19.08,6.57C272.37,113.59,263.45,104.36,263.45,85.9z"/>
		<path class="st1" d="M362.02,32.25c23.62,0,40.04,16.27,40.04,38.63v1.41c-0.16,4.54-1.41,7.19-6.1,7.19h-49.43
			c0.16,0.78,0.31,1.56,0.63,2.19c2.19,7.35,8.92,11.58,17.83,11.58c9.23,0,15.64-3.91,18.46-9.39c0.16-0.31,14.23,0.16,14.23,11.57
			c0,5.16-3.13,9.7-8.76,12.98c-5.79,3.28-14.08,5.16-25.03,5.16c-26.43,0-43.01-15.02-43.01-40.04
			C320.89,49.77,338.09,32.25,362.02,32.25z M361.55,51.49c-7.98,0-13.92,5.94-14.7,14.08h28.47
			C374.85,56.66,369.84,51.49,361.55,51.49z"/>
	</g>
	<path class="st1" d="M64.13,135.14c14.23,0,24.24,3.75,30.66,8.76c6.26,5.01,8.92,11.11,8.92,16.11
		c0,13.14-17.67,16.27-18.14,15.33c-3.75-7.35-10.79-11.42-19.71-11.42c-12.83,0-22.37,9.23-22.37,23.93
		c0,14.7,9.7,24.09,22.37,24.09c9.7,0,16.58-4.38,20.02-12.04c0.47-0.94,18.3,2.03,18.3,15.33c0,5.01-2.82,11.26-9.07,16.42
		c-6.57,5.16-16.58,9.07-31.13,9.07c-31.44,0-52.71-21.74-52.71-52.71C11.26,157.19,32.69,135.14,64.13,135.14z"/>
	<path class="st1" d="M113.87,224.76v-92.91c0-1.1,5.32-3.44,11.42-3.44c8.76,0,18.61,4.54,18.61,22.84v73.52
		c0,10.79-5.63,14.55-13.3,14.55h-3.13C119.5,239.31,113.87,235.87,113.87,224.76z"/>
	<path class="st1" d="M238.53,174.55v61.31c0,0.94-5.47,3.44-11.57,3.44s-12.67-2.19-16.11-10.01c-0.31-0.94-0.78-2.03-0.94-3.28
		c-5.47,8.45-12.98,14.55-25.5,14.55c-20.02,0-27.37-14.39-27.37-30.5v-35.51c0-10.64,5.47-14.39,13.14-14.39h3.13
		c8.13,0,13.76,3.28,13.76,14.39v30.34c0,7.04,3.6,11.26,10.01,11.26c5,0,9.07-2.5,11.42-6.1v-35.51c0-10.79,5.47-14.39,13.3-14.39
		h3.13C232.89,160.16,238.53,163.45,238.53,174.55z"/>
	<path class="st1" d="M281.07,231.49c-1.72,5.79-6.26,7.82-11.89,7.82h-3.13c-8.13,0-13.76-3.44-13.76-14.55v-92.91
		c0-1.1,5.47-3.44,11.58-3.44c8.6,0,18.46,4.54,18.46,22.84v19.08c4.85-6.88,12.83-10.95,22.52-10.95
		c21.27,0,35.19,15.48,35.19,40.51c0,24.09-13.92,40.82-35.19,40.82c-10.95,0-19.24-5.79-22.84-13.92L281.07,231.49z M296.55,182.69
		c-6.73,0-11.57,3.44-14.23,8.92v12.51c0.16,8.29,5.94,13.3,14.08,13.3c9.07,0,15.17-6.88,15.17-17.36
		C311.57,189.41,305.62,182.69,296.55,182.69z"/>
</g>
</svg>
